<svg width="14" height="10" viewBox="0 0 14 10" fill="none" xmlns="http://www.w3.org/2000/svg">
<path fill-rule="evenodd" clip-rule="evenodd" d="M14 0.5V3.06C12.71 3.06 11.64 3.62 11.64 5.03V5.07C11.64 6.5 12.72 7.06 14 7.06V9.5C14 9.7761 13.7761 10 13.5 10H0.5C0.22386 10 0 9.7761 0 9.5V7.06C1.28 7.06 2.36 6.5 2.36 5.07V5.03C2.36 3.63 1.29 3.06 0 3.06V0.5C0 0.22386 0.22386 0 0.5 0H13.5C13.7761 0 14 0.22386 14 0.5ZM13 9V7.95C11.54 7.63 10.64 6.57 10.64 5.07C10.64 3.54 11.54 2.48 13 2.16V1H1V2.16C2.46 2.49 3.36 3.54 3.36 5.03C3.36 6.56 2.46 7.62 1 7.95V9H13ZM7 2C6.72386 2 6.5 2.22386 6.5 2.5V7.5C6.5 7.7761 6.72386 8 7 8C7.27614 8 7.5 7.7761 7.5 7.5V2.5C7.5 2.22386 7.27614 2 7 2Z" fill="#4781FF"/>
</svg>
