<svg width="24" height="19" viewBox="0 0 24 19" fill="none" xmlns="http://www.w3.org/2000/svg">
<path fill-rule="evenodd" clip-rule="evenodd" d="M24 6.02V0.779999C24 0.369999 23.66 0.0299988 23.25 0.0299988H0.75C0.34 0.0299988 0 0.369999 0 0.779999V6.03C1.94 6.03 3.53999 6.88 3.53999 8.99V9.05C3.53999 11.2 1.93 12.04 0 12.04V17.29C0 17.7 0.34 18.04 0.75 18.04H23.25C23.66 18.04 24 17.7 24 17.29V12.03C22.08 12.03 20.46 11.2 20.46 9.04V8.98C20.46 6.87 22.06 6.02 24 6.02ZM12 6.2496C11.3099 6.2496 10.7504 5.6901 10.7504 5C10.7504 4.3099 11.3099 3.7504 12 3.7504C12.6901 3.7504 13.2496 4.3099 13.2496 5C13.2496 5.6901 12.6901 6.2496 12 6.2496ZM10.7481 9C10.7481 9.6914 11.3086 10.2519 12 10.2519C12.6914 10.2519 13.2519 9.6914 13.2519 9C13.2519 8.3086 12.6914 7.7481 12 7.7481C11.3086 7.7481 10.7481 8.3086 10.7481 9ZM12 14.2515C11.3088 14.2515 10.7485 13.6912 10.7485 13C10.7485 12.3088 11.3088 11.7485 12 11.7485C12.6912 11.7485 13.2515 12.3088 13.2515 13C13.2515 13.6912 12.6912 14.2515 12 14.2515Z" fill="white"/>
</svg>
